<?xml version="1.0" encoding="UTF-8" standalone="no"?>
<!-- Created with Inkscape (http://www.inkscape.org/) -->

<svg
   xmlns:dc="http://purl.org/dc/elements/1.1/"
   xmlns:cc="http://creativecommons.org/ns#"
   xmlns:rdf="http://www.w3.org/1999/02/22-rdf-syntax-ns#"
   xmlns:svg="http://www.w3.org/2000/svg"
   xmlns="http://www.w3.org/2000/svg"
   xmlns:sodipodi="http://sodipodi.sourceforge.net/DTD/sodipodi-0.dtd"
   xmlns:inkscape="http://www.inkscape.org/namespaces/inkscape"
   width="744.09448819"
   height="1052.3622047"
   id="svg2"
   version="1.1"
   inkscape:version="0.47 r22583"
   sodipodi:docname="stuff.svg">
  <defs
     id="defs4">
    <inkscape:path-effect
       effect="spiro"
       id="path-effect5255"
       is_visible="true" />
    <inkscape:path-effect
       effect="spiro"
       id="path-effect5251"
       is_visible="true" />
    <inkscape:path-effect
       effect="spiro"
       id="path-effect5247"
       is_visible="true" />
    <inkscape:path-effect
       effect="spiro"
       id="path-effect5243"
       is_visible="true" />
    <inkscape:path-effect
       effect="spiro"
       id="path-effect5239"
       is_visible="true" />
    <inkscape:path-effect
       effect="spiro"
       id="path-effect5235"
       is_visible="true" />
    <inkscape:path-effect
       effect="spiro"
       id="path-effect3662"
       is_visible="true" />
    <inkscape:path-effect
       effect="spiro"
       id="path-effect3658"
       is_visible="true" />
    <inkscape:path-effect
       effect="spiro"
       id="path-effect3654"
       is_visible="true" />
    <inkscape:path-effect
       effect="spiro"
       id="path-effect3650"
       is_visible="true" />
    <inkscape:path-effect
       effect="spiro"
       id="path-effect3646"
       is_visible="true" />
    <inkscape:path-effect
       effect="spiro"
       id="path-effect3642"
       is_visible="true" />
    <inkscape:path-effect
       effect="spiro"
       id="path-effect3638"
       is_visible="true" />
    <inkscape:path-effect
       effect="spiro"
       id="path-effect3634"
       is_visible="true" />
    <inkscape:perspective
       sodipodi:type="inkscape:persp3d"
       inkscape:vp_x="0 : 526.18109 : 1"
       inkscape:vp_y="0 : 1000 : 0"
       inkscape:vp_z="744.09448 : 526.18109 : 1"
       inkscape:persp3d-origin="372.04724 : 350.78739 : 1"
       id="perspective10" />
  </defs>
  <sodipodi:namedview
     id="base"
     pagecolor="#ffffff"
     bordercolor="#666666"
     borderopacity="1.0"
     inkscape:pageopacity="0.0"
     inkscape:pageshadow="2"
     inkscape:zoom="0.063124999"
     inkscape:cx="9454.1482"
     inkscape:cy="171.79222"
     inkscape:document-units="px"
     inkscape:current-layer="layer1"
     showgrid="false"
     inkscape:window-width="1600"
     inkscape:window-height="838"
     inkscape:window-x="-32000"
     inkscape:window-y="-32000"
     inkscape:window-maximized="1" />
  <metadata
     id="metadata7">
    <rdf:RDF>
      <cc:Work
         rdf:about="">
        <dc:format>image/svg+xml</dc:format>
        <dc:type
           rdf:resource="http://purl.org/dc/dcmitype/StillImage" />
        <dc:title></dc:title>
      </cc:Work>
    </rdf:RDF>
  </metadata>
  <g
     inkscape:label="Layer 1"
     inkscape:groupmode="layer"
     id="layer1">
    <rect
       style="opacity:1;fill:#4d4d4d;fill-opacity:1;stroke:#4d4d4d;stroke-width:13.08334445999999900;stroke-miterlimit:4;stroke-opacity:1;stroke-dasharray:none"
       id="rect2816"
       width="1881.7737"
       height="356.05951"
       x="-1113.7441"
       y="512.90393"
       inkscape:export-filename="C:\Users\Chad\Projects\LD19\Images\road.png"
       inkscape:export-xdpi="31.205521"
       inkscape:export-ydpi="31.205521" />
    <rect
       style="opacity:1;fill:#ffd42a;fill-opacity:1;stroke:none"
       id="rect2822"
       width="448.57144"
       height="37.142857"
       x="-1110.5714"
       y="623.79071"
       inkscape:export-filename="C:\Users\Chad\Projects\LD19\Images\road.png"
       inkscape:export-xdpi="31.205521"
       inkscape:export-ydpi="31.205521" />
    <rect
       y="623.79071"
       x="-230.57141"
       height="37.142857"
       width="448.57144"
       id="rect3613"
       style="opacity:1;fill:#ffd42a;fill-opacity:1;stroke:none"
       inkscape:export-filename="C:\Users\Chad\Projects\LD19\Images\road.png"
       inkscape:export-xdpi="31.205521"
       inkscape:export-ydpi="31.205521" />
    <rect
       ry="5"
       rx="5"
       y="249.181"
       x="-1121.6967"
       height="113.90782"
       width="469.3533"
       id="rect3625"
       style="opacity:1;fill:#808080;fill-opacity:1;stroke:#4d4d4d;stroke-width:2;stroke-linecap:round;stroke-linejoin:round;stroke-miterlimit:4;stroke-opacity:1;stroke-dasharray:none"
       transform="matrix(1,7.6926263e-5,-7.6926263e-5,1,0,0)"
       inkscape:export-filename="C:\Users\Chad\Projects\LD19\Images\sidewalk.png"
       inkscape:export-xdpi="31.205521"
       inkscape:export-ydpi="31.205521" />
    <rect
       style="opacity:1;fill:#808080;fill-opacity:1;stroke:#4d4d4d;stroke-width:1.74357998000000000;stroke-linecap:round;stroke-linejoin:round;stroke-miterlimit:4;stroke-opacity:1;stroke-dasharray:none"
       id="rect3617"
       width="470.55341"
       height="39.860416"
       x="-1122.3204"
       y="354.45334"
       rx="5"
       ry="5"
       inkscape:export-filename="C:\Users\Chad\Projects\LD19\Images\sidewalk.png"
       inkscape:export-xdpi="31.205521"
       inkscape:export-ydpi="31.205521" />
    <rect
       inkscape:export-ydpi="31.205521"
       inkscape:export-xdpi="31.205521"
       inkscape:export-filename="C:\Users\Chad\Projects\LD19\Images\sidewalk_front.png"
       transform="matrix(0.99999999,1.3528532e-4,-4.3741997e-5,1,0,0)"
       style="fill:#808080;fill-opacity:1;stroke:#4d4d4d;stroke-width:2.64860654;stroke-linecap:round;stroke-linejoin:round;stroke-miterlimit:4;stroke-opacity:1;stroke-dasharray:none"
       id="rect3628"
       width="468.70471"
       height="200.04561"
       x="-411.4733"
       y="252.27483"
       rx="5"
       ry="5" />
    <rect
       style="fill:#5f8dd3;fill-opacity:1;stroke:none"
       id="rect3630"
       width="1389.1281"
       height="868.99133"
       x="537.38562"
       y="-570.14777"
       inkscape:export-filename="C:\Users\Chad\Projects\LD19\Images\sky.png"
       inkscape:export-xdpi="62.141006"
       inkscape:export-ydpi="62.141006" />
    <path
       style="fill:#dbdee3;fill-opacity:1;stroke:#939dac;stroke-width:2;stroke-linecap:round;stroke-linejoin:round;stroke-miterlimit:4;stroke-opacity:1;stroke-dasharray:none"
       d="m -15.588416,-525.04956 c 2.425179,-9.53072 7.5622206,-18.35546 14.65230073,-25.17066 7.09008017,-6.8152 16.11094527,-11.59946 25.73006627,-13.64609 9.619122,-2.04662 19.806309,-1.34917 29.056749,1.98932 9.250439,3.33849 17.535097,9.30755 23.630195,17.02545 2.925427,3.70431 5.342092,7.77957 8.065045,11.63516 2.722954,3.85559 5.815853,7.54903 9.756735,10.14701 4.213932,2.77798 9.229565,4.17546 14.257165,4.61999 5.02761,0.44453 10.09297,-0.0249 15.08954,-0.73816 9.99312,-1.42659 20.15073,-3.83013 30.05924,-1.90163 7.03733,1.36968 13.56089,4.90915 18.94367,9.64474 5.38277,4.73558 9.66207,10.63707 13.02197,16.9704 6.7198,12.66667 9.78112,26.88491 13.57891,40.71159 2.13072,7.75734 4.64569,15.69136 9.90099,21.78218 4.5756,5.30306 10.875,8.78597 17.19024,11.81519 6.31525,3.02922 12.85546,5.75719 18.45332,9.96699 6.55497,4.92959 11.64234,11.90614 13.86138,19.80198 2.27459,8.09351 1.49451,16.82119 -0.97225,24.85821 -2.46676,8.03702 -6.54909,15.47833 -10.90893,22.66655 -7.83064,12.91066 -16.9763,25.5371 -29.70296,33.66336 -10.02518,6.40131 -21.86627,9.67833 -33.74123,10.36116 -11.87496,0.68283 -23.80001,-1.15223 -35.24702,-4.38438 -22.89403,-6.4643 -43.80875,-18.36651 -65.665225,-27.75896 -21.020562,-9.03323 -43.127489,-15.83747 -62.811773,-27.49904 -9.842143,-5.83079 -19.0431387,-12.8876 -26.5168002,-21.54844 -7.4736618,-8.66084 -13.1822068,-18.98397 -15.6219278,-30.16044 -1.138602,-5.21599 -1.548056,-10.73213 0,-15.84158 1.648302,-5.44031 5.381645,-10.00515 9.452691,-13.97258 4.0710459,-3.96743 8.5716856,-7.50469 12.32948942,-11.77 9.59788728,-10.89411 13.64493658,-26.44203 10.57659858,-40.63309 -3.0683381,-14.19107 -13.1770386,-26.67829 -26.418179,-32.63423"
       id="path3636"
       inkscape:path-effect="#path-effect3638"
       inkscape:original-d="m -15.588416,-525.04956 c 10.9020204,-31.49757 62.678651,-50.19264 93.069311,-19.80198 6.55833,6.55833 10.39621,14.3566 17.82178,21.78217 12.222755,12.22276 48.637885,-8.78786 59.405945,1.9802 21.24828,21.24829 25.02387,46.80605 45.54455,67.32673 5.3132,5.3132 3.68545,15.56664 9.90099,21.78218 11.464,11.46401 25.00234,11.14096 35.64356,21.78218 4.96906,4.96906 8.63345,14.57405 13.86138,19.80198 10.41564,10.41564 -9.40599,45.04956 -11.88118,47.52476 -9.05472,9.05471 -18.85899,22.81938 -29.70296,33.66336 -21.55573,21.55573 -121.931315,-9.06001 -134.653475,-21.78218 -26.77405,-26.77405 -87.7894706,-44.88587 -104.950501,-79.20792 -0.66189,-1.32379 -0.90584,-14.93574 0,-15.84158 6.12327,-6.12327 13.8903904,-17.85079 21.78218042,-25.74258 11.56769958,-11.56769 2.85885998,-65.34653 -15.84158042,-73.26732 z"
       inkscape:export-filename="C:\Users\Chad\Projects\LD19\Images\cloud2.png"
       inkscape:export-xdpi="31.205521"
       inkscape:export-ydpi="31.205521" />
    <path
       style="fill:#dbdee3;fill-opacity:1;stroke:#939dac;stroke-width:2;stroke-linecap:round;stroke-linejoin:round;stroke-miterlimit:4;stroke-opacity:1;stroke-dasharray:none"
       d="m -119.12257,-67.175254 c 43.612534,-18.94507 92.653575,-25.192114 139.622864,-17.78572 37.754839,5.953405 74.745949,20.52895 112.871296,17.82178 24.70145,-1.753978 48.25473,-10.705372 71.2871,-19.80198 8.5604,-3.380921 17.14495,-6.807397 26.10036,-8.93151 8.9554,-2.124112 18.36829,-2.911478 27.36494,-0.96948 11.36487,2.453196 21.58071,9.243675 29.01193,18.185456 7.43122,8.94178 12.17131,19.939312 14.55247,31.319494 3.49848,16.720157 1.9918,34.344293 -3.5012,50.5192713 -5.49301,16.1749777 -14.89168,30.9121357 -26.63388,43.3187417 -23.48439,24.813212 -55.67172,39.911545 -88.67682,48.736247 -13.01418,3.479652 -26.26028,6.070884 -39.604,7.920794 -28.89077,4.00528 -58.159111,4.53225 -87.128696,7.92079 -33.892303,3.96434 -67.382992,11.84381 -101.488178,12.95762 -17.052592,0.5569 -34.24717,-0.60411 -50.798421,-4.74623 -16.551255,-4.14212 -32.470895,-11.33908 -45.733205,-22.072774 -4.72952,-3.827781 -9.1299,-8.116439 -12.65222,-13.07764 -3.52232,-4.961202 -6.15114,-10.623417 -7.14978,-16.62533 -1.8291,-10.993014 1.85062,-22.067158 5.35165,-32.64708 1.75052,-5.289961 3.47389,-10.610102 4.47269,-16.091926 0.9988,-5.481823 1.25728,-11.1619729 0.0767,-16.6075337 -1.45732,-6.7218221 -5.04106,-12.8442903 -6.43107,-19.5803543 -0.695,-3.368032 -0.81843,-6.915767 0.1691,-10.209921 0.98753,-3.294153 3.17784,-6.312044 6.26197,-7.833485 3.03337,-1.496399 6.56198,-1.440294 9.901,-1.9802 6.79178,-1.098205 13.11268,-4.878581 17.29331,-10.342713 4.18062,-5.464132 6.17636,-12.553701 5.46013,-19.396317"
       id="path3640"
       inkscape:path-effect="#path-effect3642"
       inkscape:original-d="m -119.12257,-67.175254 c 25.803904,-41.753436 78.502564,-30.00977 139.622864,-17.78572 22.9305,4.58611 91.932396,28.29119 112.871296,17.82178 15.0251,-7.51259 52.9315,-19.80198 71.2871,-19.80198 9.6643,0 45.1117,-18.254646 53.4653,-9.90099 14.3469,14.34684 35.8286,34.03341 43.5644,49.50495 63.1368,126.27363 -51.0235,108.68004 -118.8119,142.57426 -11.5827,5.791374 -27.9297,2.08366 -39.604,7.920794 -20.2993,10.14968 -67.535096,-1.87598 -87.128696,7.92079 -22.945,11.47249 -184.234004,-0.0756 -198.019804,-13.861384 -8.8411,-8.8411 -13.8891,-17.87722 -19.802,-29.70297 -5.7533,-11.50672 3.8847,-59.3301597 9.901,-65.3465397 4.0687,-4.06866 -4.764,-35.7181603 0,-37.6237603 3.125,-1.24999 8.3958,1.03016 9.901,-1.9802 1.5897,-3.1793 23.45054,-26.25349 22.75344,-29.73903 z"
       sodipodi:nodetypes="cssssssssssssss"
       inkscape:export-filename="C:\Users\Chad\Projects\LD19\Images\cloud4.png"
       inkscape:export-xdpi="31.205521"
       inkscape:export-ydpi="31.205521" />
    <path
       style="fill:#dbdee3;fill-opacity:1;stroke:#939dac;stroke-width:2;stroke-linecap:round;stroke-linejoin:round;stroke-miterlimit:4;stroke-opacity:1;stroke-dasharray:none"
       d="m -146.06247,-653.74242 c -0.0995,-7.03044 -2.1908,-14.02189 -5.96811,-19.95223 -3.77731,-5.93034 -9.22905,-10.78135 -15.5582,-13.84384 -6.32915,-3.0625 -13.51627,-4.32706 -20.51063,-3.60883 -6.99437,0.71824 -13.77449,3.41706 -19.34916,7.70193 -5.26578,4.04745 -9.41948,9.45172 -12.35703,15.40832 -2.93756,5.9566 -4.68479,12.45815 -5.55175,19.04288 -1.73393,13.16946 0.006,26.5213 1.7731,39.68641 1.76662,13.16511 3.56284,26.5024 1.9388,39.68586 -0.81202,6.59173 -2.49073,13.109 -5.35354,19.10188 -2.86281,5.99288 -6.93524,11.45478 -12.13278,15.58949 -5.06579,4.0299 -11.12669,6.73851 -17.44345,8.15304 -6.31675,1.41453 -12.88574,1.55637 -19.30866,0.75115 -12.84584,-1.61045 -24.93905,-6.92503 -36.3334,-13.07142 -11.39434,-6.14638 -22.31617,-13.18922 -34.04093,-18.67913 -11.72475,-5.48992 -24.49513,-9.42704 -37.42806,-8.8368 -4.31893,0.19711 -8.60016,0.89582 -12.9132,1.19529 -4.31304,0.29948 -8.73217,0.18513 -12.8293,-1.19529 -4.25381,-1.43321 -7.93949,-4.15047 -11.48685,-6.90096 -3.54737,-2.75049 -7.0892,-5.60924 -11.20514,-7.40034 -2.05797,-0.89556 -4.25084,-1.51328 -6.49018,-1.66362 -2.23934,-0.15034 -4.52786,0.1778 -6.57509,1.09766 -2.04722,0.91985 -3.8416,2.44823 -4.94367,4.4034 -1.10206,1.95517 -1.47729,4.33912 -0.88325,6.50346 0.40702,1.48296 1.24941,2.82936 2.32967,3.92383 1.08027,1.09447 2.39304,1.94384 3.79126,2.58402 2.79643,1.28036 5.88987,1.72655 8.93115,2.1848 3.04128,0.45824 6.13398,0.95966 8.88514,2.33461 1.37557,0.68748 2.65287,1.59349 3.67577,2.74176 1.0229,1.14826 1.78496,2.54551 2.08999,4.05276 0.48692,2.40606 -0.24177,4.98117 -1.73828,6.92711 -1.4965,1.94595 -3.70606,3.28184 -6.07045,3.94203 -2.3644,0.66019 -4.87776,0.67365 -7.30189,0.28659 -2.42413,-0.38706 -4.77002,-1.1649 -7.05279,-2.06779 -4.56553,-1.80578 -8.986,-4.14113 -13.81955,-5.00231 -2.41678,-0.43058 -4.92666,-0.47752 -7.30977,0.11153 -2.38312,0.58905 -4.63542,1.84217 -6.21223,3.72363 -1.49792,1.78733 -2.33734,4.09601 -2.43184,6.42611 -0.0945,2.3301 0.54177,4.67149 1.72069,6.68357 1.17892,2.01207 2.88881,3.69643 4.86868,4.92867 1.97986,1.23223 4.22446,2.01814 6.52702,2.38759 4.60513,0.73891 9.35622,-0.18287 13.69311,-1.89883 4.3369,-1.71595 8.32091,-4.20079 12.25563,-6.70502 3.93472,-2.50423 7.86951,-5.05373 12.14517,-6.91702 4.27567,-1.86329 8.95305,-3.02466 13.59792,-2.60233 2.32244,0.21117 4.61713,0.82106 6.69502,1.87967 2.0779,1.05861 3.9349,2.57184 5.31376,4.45254 1.37885,1.88071 2.26909,4.13188 2.4536,6.45658 0.18451,2.32471 -0.35111,4.71569 -1.5912,6.69065 -0.96296,1.5336 -2.32902,2.79585 -3.87699,3.73553 -1.54796,0.93969 -3.275,1.56392 -5.04497,1.9466 -3.53992,0.76536 -7.20798,0.5744 -10.82386,0.36887 -3.61588,-0.20552 -7.27991,-0.41868 -10.82872,0.30433 -1.77441,0.36151 -3.50976,0.95956 -5.07431,1.87135 -1.56456,0.9118 -2.95583,2.14436 -3.95515,3.65451 -1.09815,1.6595 -1.70167,3.62934 -1.80475,5.61661 -0.10308,1.98727 0.28633,3.98905 1.04978,5.82671 1.52692,3.67532 4.50052,6.61719 7.89879,8.68872 6.79654,4.14306 15.04038,4.97818 22.55918,7.59073 6.98021,2.4254 13.30695,6.37658 19.8019,9.90099 50.17774,27.2284 111.79168,28.73444 166.3367,11.88119 12.06903,-3.72908 24.06464,-8.41005 34.06339,-16.12967 4.99938,-3.85981 9.4567,-8.46554 12.87185,-13.77861 3.41515,-5.31306 5.77094,-11.34626 6.53006,-17.61648 1.03704,-8.56583 -0.91111,-17.24262 -3.84643,-25.35637 -2.93532,-8.11374 -6.85328,-15.83779 -9.97062,-23.88335 -3.11734,-8.04557 -5.44852,-16.58342 -4.9923,-25.19974 0.2281,-4.30815 1.16407,-8.59922 2.96675,-12.51873 1.80268,-3.91952 4.48806,-7.45967 7.9218,-10.0715 3.48144,-2.64811 7.66406,-4.29595 11.96608,-5.08688 4.30201,-0.79093 8.72728,-0.74785 13.07086,-0.23188 8.68715,1.03193 17.03365,3.91977 25.5839,5.77037 8.55026,1.8506 17.69663,2.61636 25.866914,-0.51062 4.085143,-1.56349 7.838179,-4.11009 10.531529,-7.55665 2.693351,-3.44656 4.275324,-7.81703 4.069818,-12.18632 -0.128509,-2.73225 -0.934306,-5.39338 -1.9802,-7.92079 -4.673725,-11.29409 -14.481228,-20.34387 -26.113901,-24.09634 -11.63267,-3.75248 -24.87973,-2.13966 -35.2722,4.29436"
       id="path3652"
       inkscape:path-effect="#path-effect3654"
       inkscape:original-d="m -146.06247,-653.74242 c 4.6366,-39.69617 -41.0849,-50.00425 -61.3861,-29.70297 -40.3012,40.30116 9.9108,127.71785 -31.6832,148.51484 -33.7971,16.89856 -117.4889,-31.68316 -144.5545,-31.68316 -4.1022,0 -23.1319,2.61061 -25.7425,0 -1.8976,-1.89757 -36.84003,-8.70455 -41.58418,-3.9604 -1.87896,1.87896 31.58188,15.94282 29.70298,17.82178 -10.6441,10.64406 -57.2078,0.21795 -49.50496,7.92079 10.47382,10.47383 64.79986,11.33449 75.24756,21.78218 11.1611,11.16119 -48.70457,2.78062 -39.604,11.88119 10.4292,10.42917 20.1518,18.17164 29.703,27.72277 3.6833,3.68333 15.825,5.92406 19.8019,9.90099 12.0585,12.05849 154.1511,24.06681 166.3367,11.88119 15.0647,-15.0647 39.0924,-33.15183 53.4653,-47.52476 22.6455,-22.64546 -26.1232,-78.82726 -7.9208,-97.02969 6.9772,-6.97719 70.6412,0.64601 91.089101,-19.80198 2.56,-2.55999 -1.5788,-7.5194 -1.9802,-7.92079 -16.320701,-16.32079 -34.233101,-11.88119 -61.386101,-19.80198 z"
       inkscape:export-filename="C:\Users\Chad\Projects\LD19\Images\cloud1.png"
       inkscape:export-xdpi="31.205521"
       inkscape:export-ydpi="31.205521" />
    <path
       style="fill:#dbdee3;fill-opacity:1;stroke:#939dac;stroke-width:2;stroke-linecap:round;stroke-linejoin:round;stroke-miterlimit:4;stroke-opacity:1;stroke-dasharray:none"
       d="m -663.93177,-158.99438 c -8.03247,5.91789 -14.06084,14.50759 -16.89519,24.0736 -2.83435,9.566 -2.45837,20.05327 1.05373,29.39175 2.499,6.644699 6.56103,12.706344 11.81512,17.480398 5.25408,4.774055 11.69635,8.245909 18.59383,9.925735 6.89748,1.679825 14.23715,1.555132 21.04996,-0.44051 6.81281,-1.995643 13.07777,-5.86644 17.84795,-11.124046 5.48047,-6.040481 8.86036,-13.662757 11.81549,-21.264747 2.95513,-7.60199 5.61372,-15.40218 9.96671,-22.2996 5.52846,-8.75998 13.72993,-15.79135 23.19216,-20.00649 9.46222,-4.21513 20.14527,-5.61072 30.38785,-4.06461 10.24259,1.54612 20.01405,6.01679 27.94425,12.6811 7.9302,6.66431 14.0048,15.49511 17.48564,25.25138 2.32438,6.5149 3.4998,13.37086 4.99358,20.124777 1.49378,6.753914 3.3544,13.532492 6.88762,19.47918 0.63799,1.073793 1.33182,2.120891 2.16895,3.04786 0.83713,0.926968 1.82403,1.73394 2.95615,2.261559 1.13211,0.527619 2.41616,0.765242 3.64806,0.559116 1.2319,-0.206126 2.40129,-0.878227 3.10794,-1.908135 0.53062,-0.773353 0.78392,-1.705636 0.91175,-2.63477 0.12783,-0.929135 0.13904,-1.870334 0.23382,-2.80342 0.0948,-0.933085 0.27909,-1.874275 0.72451,-2.699642 0.22272,-0.412684 0.51012,-0.792768 0.86324,-1.101337 0.35312,-0.30857 0.77308,-0.544378 1.22708,-0.661821 0.61359,-0.158726 1.27458,-0.09567 1.86667,0.130393 0.5921,0.226066 1.11712,0.609544 1.55121,1.071333 0.86818,0.923578 1.36454,2.128712 1.79939,3.319359 0.43485,1.190647 0.83613,2.415168 1.56329,3.453422 0.36358,0.519128 0.80836,0.986905 1.3385,1.334235 0.53014,0.34733 1.14852,0.570768 1.78194,0.592248 0.68558,0.02325 1.37018,-0.192073 1.94582,-0.565162 0.57564,-0.373088 1.04472,-0.898888 1.39208,-1.490409 0.69472,-1.183043 0.89861,-2.590298 0.94532,-3.961445 0.0467,-1.371147 -0.0494,-2.749352 0.1066,-4.112402 0.15595,-1.36305 0.59516,-2.747589 1.55078,-3.731972 0.53965,-0.555895 1.22622,-0.962034 1.96333,-1.200601 0.73711,-0.238567 1.52355,-0.312056 2.29575,-0.249176 1.5444,0.125759 3.00466,0.787427 4.29141,1.650714 2.57349,1.726572 4.56396,4.267735 7.29111,5.739663 2.55175,1.377258 5.62855,1.698371 8.44427,1.005573 2.81573,-0.692798 5.35794,-2.370095 7.20858,-4.602445 1.85065,-2.232351 3.01852,-5.000504 3.46227,-7.866048 0.44376,-2.865545 0.17616,-5.823357 -0.64213,-8.605207 -1.63658,-5.56369 -5.40602,-10.30714 -9.83522,-14.05084 -4.42919,-3.7437 -9.52834,-6.59403 -14.57837,-9.44539 -3.34837,-1.89056 -6.71661,-3.8105 -9.60665,-6.34693 -2.89004,-2.53642 -5.30358,-5.76392 -6.23495,-9.49465 -0.598,-2.39537 -0.56425,-4.93391 0.003,-7.33678 0.56711,-2.40288 1.65992,-4.67034 3.10759,-6.67025 2.89535,-3.99983 7.14589,-6.86924 11.69482,-8.78989 9.09787,-3.84128 19.29471,-4.08624 28.75913,-6.90605 12.84867,-3.82811 24.29781,-12.74897 30.27809,-24.7481 2.99014,-5.99956 4.60672,-12.69521 4.55101,-19.39839 -0.0557,-6.70318 -1.79644,-13.40186 -5.1261,-19.21985 -2.37239,-4.14533 -5.53789,-7.85806 -7.341,-12.28082 -0.90155,-2.21138 -1.44623,-4.60107 -1.29592,-6.98442 0.15031,-2.38336 1.03573,-4.76111 2.69632,-6.47734 1.75711,-1.81599 4.23214,-2.77116 6.70751,-3.27886 2.47538,-0.50771 5.01525,-0.62045 7.50649,-1.04351 2.49124,-0.42306 5.00417,-1.19675 6.93746,-2.82391 0.96665,-0.81357 1.77013,-1.83517 2.25446,-3.00211 0.48432,-1.16693 0.63917,-2.48159 0.35638,-3.71299 -0.27346,-1.19077 -0.93867,-2.26114 -1.73531,-3.18746 -0.79664,-0.92632 -1.72727,-1.72596 -2.62863,-2.55074 -0.90137,-0.82477 -1.78421,-1.68689 -2.458,-2.70607 -0.67378,-1.01918 -1.13116,-2.21558 -1.09876,-3.43692 0.0238,-0.89893 0.31301,-1.78057 0.76707,-2.55677 0.45405,-0.77619 1.0691,-1.45049 1.75642,-2.03034 1.37466,-1.15968 3.02014,-1.93971 4.5937,-2.8106 1.57356,-0.87089 3.13214,-1.88169 4.16592,-3.35337 0.51689,-0.73584 0.89108,-1.58099 1.01907,-2.47108 0.12799,-0.89009 0.001,-1.82549 -0.42108,-2.61943 -0.50052,-0.94113 -1.39611,-1.64175 -2.39734,-2.00752 -1.00124,-0.36576 -2.10096,-0.41306 -3.15405,-0.24794 -2.10617,0.33024 -3.98376,1.4631 -5.86567,2.46483 -0.94095,0.50086 -1.90088,0.9756 -2.91373,1.30787 -1.01285,0.33226 -2.08455,0.51962 -3.14699,0.43321 -1.06245,-0.0864 -2.11667,-0.45916 -2.92833,-1.15016 -0.81166,-0.69099 -1.35955,-1.71465 -1.37599,-2.78048 -0.0155,-1.00206 0.42665,-1.96689 1.03651,-2.76215 0.60986,-0.79525 1.38287,-1.44718 2.13723,-2.10694 0.75437,-0.65977 1.505,-1.34391 2.05297,-2.18301 0.54798,-0.83909 0.88029,-1.86062 0.71389,-2.84889 -0.12358,-0.73398 -0.51932,-1.41099 -1.06531,-1.91684 -0.54599,-0.50586 -1.2362,-0.8446 -1.96014,-1.01753 -1.44788,-0.34586 -2.97904,-0.0375 -4.37262,0.48583 -1.39359,0.52335 -2.69963,1.2568 -4.08359,1.80509 -1.38397,0.54829 -2.89554,0.91086 -4.35994,0.64345 -1.41656,-0.25868 -2.67864,-1.09314 -3.67669,-2.13115 -0.99805,-1.03801 -1.75977,-2.2766 -2.48617,-3.51994 -0.7264,-1.24335 -1.43021,-2.50888 -2.33464,-3.62941 -0.90443,-1.12052 -2.033,-2.10151 -3.3837,-2.60069 -1.47436,-0.54488 -3.14436,-0.47437 -4.61489,0.0808 -1.47054,0.55514 -2.74401,1.57435 -3.70974,2.81451 -1.93148,2.48032 -2.60717,5.71602 -2.81312,8.85292 -0.20596,3.1369 -4.7e-4,6.30195 -0.42851,9.41633 -0.21402,1.55719 -0.58894,3.10094 -1.23311,4.53471 -0.64417,1.43376 -1.56538,2.75732 -2.77153,3.76521 -1.23517,1.03214 -2.74999,1.71321 -4.33047,2.01822 -1.58048,0.30502 -3.22416,0.23944 -4.79207,-0.12474 -3.13581,-0.72836 -5.90891,-2.62388 -8.13733,-4.94724 -4.45683,-4.64672 -6.85074,-10.87864 -10.73363,-16.01465 -2.32714,-3.07817 -5.16327,-5.72843 -7.74697,-8.59464 -2.58371,-2.86621 -4.96392,-6.03885 -6.11443,-9.72219 -0.94745,-3.03324 -1.01386,-6.30488 -0.43593,-9.42965 0.57793,-3.12478 1.78439,-6.11048 3.31995,-8.89262 3.07111,-5.56427 7.4144,-10.29796 11.28402,-15.33968 3.86962,-5.04172 7.37206,-10.64219 8.31003,-16.92813 0.46899,-3.14297 0.26562,-6.41433 -0.82826,-9.39789 -1.09387,-2.98356 -3.1085,-5.66253 -5.80821,-7.33876 -2.91302,-1.80868 -6.5204,-2.37675 -9.90048,-1.80052 -3.38009,0.57624 -6.52743,2.25148 -9.07609,4.54524 -5.09733,4.58752 -7.68343,11.36962 -8.99013,18.10168 -1.30669,6.73206 -1.51252,13.6395 -2.79162,20.37686 -1.27911,6.73735 -3.80502,13.53285 -8.84558,18.18267 -3.55868,3.28281 -8.22623,5.29862 -13.03917,5.82459 -4.81294,0.52596 -9.75096,-0.41301 -14.11991,-2.49947 -4.36895,-2.08646 -8.16998,-5.29846 -11.11055,-9.14476 -2.94057,-3.84631 -5.03055,-8.31595 -6.28487,-12.99224 -1.91736,-7.1482 -1.93945,-14.84222 -5.02899,-21.56738 -1.54476,-3.36258 -3.90281,-6.443 -7.09844,-8.3088 -1.59782,-0.9329 -3.38952,-1.54856 -5.23212,-1.71629 -1.84261,-0.16772 -3.7347,0.12002 -5.41275,0.89941 -2.06375,0.95853 -3.71765,2.5983 -5.55681,3.93821 -0.91958,0.66996 -1.8996,1.27234 -2.96922,1.66013 -1.06962,0.38778 -2.23722,0.55358 -3.35517,0.34225 -1.38074,-0.26101 -2.58569,-1.06599 -3.86173,-1.65446 -0.63801,-0.29423 -1.30679,-0.53804 -2.00378,-0.62659 -0.69699,-0.0885 -1.42718,-0.0142 -2.05519,0.30085 -0.67799,0.3401 -1.20401,0.94858 -1.5058,1.64447 -0.30179,0.69589 -0.3882,1.47409 -0.31573,2.22913 0.14493,1.51008 0.89465,2.88769 1.66174,4.19647 0.76709,1.30879 1.58125,2.63251 1.87896,4.12003 0.14885,0.74376 0.1621,1.52208 -0.0303,2.25578 -0.19239,0.73371 -0.59871,1.42055 -1.19389,1.89076 -0.426,0.33654 -0.93865,0.55588 -1.47025,0.66602 -0.53161,0.11014 -1.0821,0.1134 -1.62061,0.0446 -1.07704,-0.13762 -2.09512,-0.55642 -3.09896,-0.97024 -1.00383,-0.41382 -2.02301,-0.83067 -3.10058,-0.96405 -0.53878,-0.0667 -1.08933,-0.0607 -1.62028,0.0525 -0.53094,0.11328 -1.04219,0.33619 -1.46552,0.67608 -0.56981,0.45749 -0.96271,1.11545 -1.15778,1.81968 -0.19507,0.70422 -0.19957,1.45283 -0.0775,2.17331 0.24406,1.44097 0.97237,2.74606 1.65445,4.03862 0.68209,1.29256 1.34181,2.64959 1.42804,4.10853 0.0431,0.72947 -0.0637,1.47503 -0.37052,2.13824 -0.30684,0.6632 -0.82154,1.23944 -1.47665,1.5632 -0.78201,0.38648 -1.70952,0.39232 -2.55698,0.18562 -0.84745,-0.20671 -1.63189,-0.61087 -2.40067,-1.02303 -0.76878,-0.41217 -1.53794,-0.83877 -2.37137,-1.09625 -0.83342,-0.25749 -1.7491,-0.33596 -2.57198,-0.0465 -0.54756,0.19258 -1.03508,0.54329 -1.41119,0.98539 -0.37611,0.4421 -0.64219,0.97356 -0.79539,1.53342 -0.3064,1.11971 -0.15961,2.32696 0.22638,3.42179 0.89477,2.53797 3.01647,4.50249 5.41486,5.723 2.3984,1.22051 5.07364,1.77831 7.72864,2.21755 2.65499,0.43923 5.34268,0.77627 7.90424,1.60109 2.56156,0.82482 5.03059,2.18949 6.67496,4.31974 1.3711,1.77624 2.09726,4.01707 2.15133,6.26029 0.0541,2.24322 -0.54748,4.48269 -1.60975,6.45919 -2.12454,3.95299 -5.98475,6.74539 -10.13344,8.45659 -8.29737,3.4224 -17.82243,2.9635 -26.05164,6.5467 -5.14297,2.23937 -9.56116,6.00228 -12.88497,10.52082 -3.3238,4.51855 -5.57822,9.77451 -6.91703,15.22176 -2.9748,12.10368 -1.50135,25.01294 -4.88391,37.00906 -1.69128,5.99806 -4.68792,11.78074 -9.41827,15.83794 -2.36518,2.0286 -5.14305,3.59713 -8.1437,4.437 -3.00065,0.83987 -6.22459,0.93719 -9.23732,0.14174 -5.11279,-1.34992 -9.23692,-5.1034 -12.68646,-9.11134 -3.44954,-4.00793 -6.48259,-8.42833 -10.51875,-11.8448 -2.01808,-1.70823 -4.28637,-3.15291 -6.78015,-4.03142 -2.49378,-0.8785 -5.22404,-1.17247 -7.80719,-0.6085 -2.58315,0.56398 -5.00222,2.02363 -6.52178,4.18735 -0.75977,1.08186 -1.29001,2.32804 -1.51269,3.63115 -0.22268,1.30311 -0.13486,2.6618 0.28256,3.91617 0.66963,2.01228 2.14047,3.66439 3.7678,5.02435 1.62732,1.35995 3.43906,2.48473 5.0804,3.82774 1.64133,1.34302 3.14283,2.95941 3.8747,4.9499 0.36594,0.99524 0.52901,2.07279 0.40455,3.12585 -0.12447,1.05305 -0.54434,2.07932 -1.24625,2.87414 -0.57646,0.65278 -1.32887,1.13734 -2.13754,1.46059 -0.80866,0.32325 -1.67355,0.48989 -2.54125,0.56418 -1.73542,0.14856 -3.48058,-0.0661 -5.22221,-0.0446 -0.78985,0.01 -1.59458,0.0717 -2.32667,0.36832 -0.36605,0.14832 -0.71054,0.35536 -0.99725,0.627 -0.28671,0.27164 -0.51441,0.60926 -0.63648,0.98488 -0.16588,0.51043 -0.12956,1.07691 0.0629,1.57791 0.19249,0.501 0.5351,0.93754 0.95096,1.27682 0.83174,0.67856 1.91805,0.95951 2.98252,1.09786 1.06446,0.13835 2.14721,0.15348 3.19481,0.38748 0.5238,0.11699 1.03814,0.28949 1.50731,0.55014 0.46916,0.26066 0.89283,0.61199 1.20246,1.05038 0.4278,0.6057 0.62225,1.36312 0.58679,2.10381 -0.0355,0.7407 -0.29383,1.46305 -0.69595,2.0861 -0.80425,1.24609 -2.13915,2.06331 -3.52743,2.58506 -1.38829,0.52175 -2.85748,0.78677 -4.28634,1.18413 -1.42887,0.39737 -2.856,0.94964 -3.95827,1.94189 -0.92783,0.83522 -1.58458,1.95973 -1.89076,3.16998 -0.30618,1.21025 -0.26526,2.50157 0.0826,3.70051 0.34786,1.19894 0.99855,2.30439 1.85189,3.21558 0.85335,0.91118 1.90649,1.62918 3.05248,2.12432 2.29198,0.99027 4.91655,1.07159 7.34581,0.49495 2.42926,-0.57664 4.67605,-1.78123 6.68721,-3.26079 4.02231,-2.9591 7.12904,-6.98211 10.89098,-10.26588 1.88097,-1.64188 3.94411,-3.10765 6.24398,-4.07946 2.29987,-0.97181 4.85411,-1.43199 7.31988,-1.0398 3.44637,0.54816 6.51272,2.76209 8.45728,5.65979 1.94456,2.89769 2.82754,6.42387 2.89208,9.91297 0.1291,6.97819 -2.83164,13.58464 -5.40876,20.07081 -1.13758,2.86309 -2.21054,5.75186 -3.2178,8.66336 l -6.6832,5.19802"
       id="path3660"
       inkscape:path-effect="#path-effect3662"
       inkscape:original-d="m -663.93177,-158.99438 c -11.15916,4.33642 -32.89806,36.40881 -15.84146,53.46535 5.871,5.870987 52.19956,32.948907 69.30686,15.841577 2.5207,-2.52072 17.8843,-47.462267 21.7822,-43.564347 13.8865,13.88655 75.4749,37.396317 99.0099,13.86138 0.088,-0.0876 2.6671,21.175787 11.8812,39.603957 1.874,3.74817 6.9933,8.84821 11.8811,3.9604 0.5735,-0.57343 2.9921,-10.86935 3.9604,-9.90099 0.8237,0.82365 6.5419,13.26008 9.901,9.90099 2.0966,-2.09655 2.5482,-13.86139 5.9406,-13.86139 2.4442,0 12.2967,9.48551 15.8416,5.9406 4.4342,-4.4342 -1.5711,-39.194867 -5.9406,-43.564357 -1.3198,-1.31978 -16.2308,-15.45239 -15.8416,-15.84158 12.0661,-12.06611 29.8297,-15.96825 43.5644,-29.70297 15.8011,-15.80111 17.5156,-51.17897 29.703,-63.36634 7.0092,-7.00927 -5.9406,-23.7993 -5.9406,-25.74258 0,-3.11289 21.3885,-11.48751 23.7623,-13.86138 6.7828,-6.78271 1.5406,-21.34254 -7.9207,-11.88119 -4.6674,4.66737 14.833,-9.93778 11.8811,-15.84159 -3.3032,-6.60655 -17.7506,2.05135 -21.7821,-1.98019 -2.7216,-2.72153 9.7894,-9.90099 5.9406,-9.90099 -2.1029,0 -14.3702,1.47138 -15.8416,0 -0.9893,-0.98927 -7.7427,-16.01971 -11.8812,-11.88119 -0.8564,0.85638 -4.539,24.61436 -15.5709,29.46445 -11.0319,4.85009 -18.3489,-9.4238 -27.9935,-19.06841 -6.0076,-6.00763 -7.8537,-12.30921 -13.8614,-18.31683 -2.6753,-2.67538 19.929,-63.2394 15.8416,-67.32673 -13.7972,-13.7972 -31.9626,67.04722 -39.6039,59.40593 -10.376,-10.37595 -31.099,-9.01644 -44.5545,-18.81188 -13.4555,-9.79543 -26.2532,-30.69306 -22.7723,-30.69306 4.4279,0 -8.7502,9.07156 -11.8812,5.94059 -0.4013,-0.40139 -5.3608,-4.54018 -7.9207,-1.9802 -2.9703,2.9703 3.4653,13.36634 0.495,16.33664 -3.7465,3.74648 -8.6297,-4.24154 -12.3762,-0.49505 -2.6403,2.64026 2.6402,13.20132 0,15.84158 -0.3182,0.31819 -7.2892,-4.59205 -9.901,-1.9802 -0.3086,0.30861 -3.6432,4.27757 -1.9802,5.9406 1.0915,1.09149 31.6859,9.8982 27.7227,13.86138 -11.0681,11.0681 -25.0947,17.17391 -35.6435,27.72277 -7.5908,7.59076 -12.2112,18.15182 -19.802,25.74258 -13.7254,13.72539 -21.8332,47.57574 -31.6832,57.42574 -3.8465,3.84653 -45.54446,-12.96046 -45.54446,-13.86139 0,-2.08765 11.8812,8.59914 11.8812,19.80198 0,3.47832 -6.7722,1.9802 -9.901,1.9802 -0.8581,0 -3.9604,2.44224 -3.9604,1.9802 0,-3.84881 12.6225,3.21907 9.901,5.94059 -0.9065,0.90652 -14.2515,7.53073 -11.8812,9.90099 9.0464,9.04641 35.85906,-11.66562 41.58406,-5.94059 6.9307,6.93069 -0.9901,28.71287 5.9406,35.64357 2.8391,2.83905 -6.8089,6.86779 -3.2178,8.66336 19.3794,-8.16712 17.0802,5.56379 -6.6832,5.19802 z"
       sodipodi:nodetypes="csssssssssssssssssssssszsssscsssssssssssssssssssscc"
       inkscape:export-filename="C:\Users\Chad\Projects\LD19\Images\cloud3.png"
       inkscape:export-xdpi="31.205521"
       inkscape:export-ydpi="31.205521" />
    <path
       style="fill:#447821;fill-opacity:1;stroke:#112b00;stroke-width:1;stroke-linecap:butt;stroke-linejoin:round;stroke-miterlimit:4;stroke-opacity:1;stroke-dasharray:none"
       d="m 1954.6952,2169.7309 c 51.5635,-55.2403 78.906,-132.334 73.671,-207.7189 -5.2351,-75.3848 -42.9712,-147.9591 -101.6752,-195.542 -27.1653,-22.019 -58.2268,-38.6691 -86.8131,-58.8089 -69.2327,-48.7763 -122.2004,-116.6151 -179.2271,-179.227 -53.7479,-59.012 -112.6087,-114.6244 -182.0275,-154.0233 -43.5089,-24.6937 -91.0713,-42.8025 -140.5604,-50.1259 -49.4891,-7.3233 -100.9565,-3.62 -147.8832,13.7204 -36.8247,13.6075 -70.067,35.1638 -104.0738,54.779 -34.0068,19.6153 -69.8925,37.6977 -108.7583,43.2358 -48.59675,6.9247 -98.32548,-6.4929 -142.07742,-28.7497 -43.75193,-22.2567 -82.49695,-53.0251 -121.16233,-83.2672 -17.25221,-13.4938 -35.06459,-27.196 -56.00846,-33.6051 -17.50143,-5.3556 -36.43424,-5.2639 -54.26981,-1.1559 -17.83558,4.1079 -34.62132,12.1224 -49.9055,22.191 -30.56835,20.1373 -54.97065,48.0954 -80.6526,74.1793 -14.81957,15.0515 -30.1752,29.5725 -44.80677,44.8068 -10.06332,10.4779 -19.80563,21.3137 -30.80465,30.8046 -28.65484,24.7259 -64.63131,39.3083 -100.81523,50.4076 -67.3013,20.6445 -137.35912,30.6304 -207.231296,39.206 -41.950994,5.1488 -83.9610186,9.8165 -126.019032,14.0021 l -8.401269,19.6029 c -9.460945,45.2581 -16.013213,91.124 -19.60296,137.2208 -11.478891,147.4032 7.716287,297.1256 56.0084583,436.8659"
       id="path5233"
       inkscape:path-effect="#path-effect5235"
       inkscape:original-d="m 1954.6952,2169.7309 c -43.9603,-21.9802 -28.0042,-369.8476 -28.0042,-403.2609 0,-10.2598 -72.8452,-54.1529 -86.8131,-58.8089 -68.937,-22.979 -140.7296,-121.4808 -179.2271,-179.227 -36.4771,-54.7157 -125.0955,-117.7938 -182.0275,-154.0233 -86.3047,-54.9212 -195.156,-59.7274 -288.4436,-36.4055 -75.0192,18.7548 -134.7698,85.0044 -212.8321,98.0148 -93.93073,15.6551 -185.6177,-65.4437 -263.23975,-112.0169 -16.61203,-9.9672 -38.1917,-30.6356 -56.00846,-33.6051 -70.74134,-11.7902 -146.12136,37.1546 -184.82791,95.2144 -10.73109,16.0966 -27.9367,36.3717 -44.80677,44.8068 -11.79878,5.8994 -18.42951,26.6796 -30.80465,30.8046 -33.20894,11.0697 -64.22993,43.0906 -100.81523,50.4076 -68.45278,13.6906 -137.83688,26.5888 -207.231296,39.206 -41.317485,7.5122 -84.2385019,5.0785 -126.019032,14.0021 l -8.401269,19.6029 c 1.274254,30.546 -5.720156,123.338 -19.60296,137.2208 -0.34159,0.3416 51.151337,427.1517 56.0084583,436.8659"
       sodipodi:nodetypes="csssssssssssssccsc"
       inkscape:export-filename="C:\Users\Chad\Projects\LD19\Images\hills1.png"
       inkscape:export-xdpi="26.049473"
       inkscape:export-ydpi="26.049473" />
    <path
       style="fill:#447821;fill-opacity:1;stroke:#112b00;stroke-width:1;stroke-linecap:butt;stroke-linejoin:round;stroke-miterlimit:4;stroke-opacity:1;stroke-dasharray:none"
       d="m 2441.9688,2158.5292 c -37.2104,-66.6816 -47.3917,-147.9515 -27.7805,-221.7516 19.6113,-73.8001 68.7931,-139.2952 134.1966,-178.7088 49.6709,-29.9327 106.7306,-44.6676 160.8305,-65.5569 27.0499,-10.4447 53.6126,-22.5595 77.7227,-38.6684 24.11,-16.1089 45.7813,-36.375 61.092,-60.9997 16.4292,-26.4236 25.006,-56.8161 34.9441,-86.301 9.9381,-29.4848 21.926,-59.2728 43.4678,-81.7244 9.4133,-9.8109 20.7026,-18.1147 33.605,-22.4034 16.1623,-5.3722 33.887,-4.1406 50.4077,0 18.3509,4.5993 35.6253,12.6205 53.208,19.603 69.2423,27.4977 143.9893,39.0462 218.433,42.0064 38.2825,1.5223 76.6765,0.8247 114.8173,-2.8005 138.9539,-13.2072 275.9882,-65.1417 414.4626,-47.6072 48.8207,6.182 96.118,20.8991 142.8216,36.4055 102.3371,33.9778 205.8174,72.5351 313.6473,72.811 78.4126,0.2006 155.2232,-19.9346 232.4352,-33.605 14.8333,-2.6262 29.7539,-5.0214 44.8067,-5.6009 42.1897,-1.6242 83.5074,11.0052 123.5962,24.2525 40.0889,13.2473 80.6491,27.391 122.841,28.9555 45.9966,1.7056 91.0335,-11.6271 135.489,-23.5561 44.4556,-11.9289 90.6589,-22.6476 136.1521,-15.6498 26.0233,4.0029 50.7726,13.67 75.6114,22.4034 20.7143,7.2832 41.7321,13.9792 63.3848,17.6245 21.6527,3.6454 44.0529,4.1734 65.4346,-0.822 21.9357,-5.1248 42.5855,-15.9718 65.0354,-17.8266 11.225,-0.9274 22.8787,0.5445 32.8011,5.8741 4.9612,2.6647 9.437,6.2773 12.9111,10.7097 3.474,4.4324 5.9284,9.6927 6.8702,15.245 1.1241,6.6271 0.081,13.4938 -2.1612,19.8308 -2.2417,6.337 -5.6452,12.1991 -9.3203,17.8273 -7.3503,11.2563 -16.0405,22.1162 -19.3232,35.1529 -3.6106,14.339 -0.012,29.9732 8.1022,42.3342 8.1147,12.361 20.421,21.6061 33.9042,27.6763 20.3134,9.1452 43.2643,11.3766 65.4317,9.1691 22.1675,-2.2074 43.6987,-8.6805 64.6186,-16.3375 41.8398,-15.3139 83.0738,-35.7627 127.5886,-37.6383 23.5157,-0.9908 46.8862,3.2954 70.3018,5.6782 23.4156,2.3828 47.7431,2.7488 69.7193,-5.6782 6.3894,-2.4501 12.7604,-5.6732 19.603,-5.6009 6.3472,0.067 12.3183,2.9941 17.6397,6.4544 5.3214,3.4604 10.277,7.5315 15.9654,10.3482 11.2026,5.5471 24.1857,5.7657 36.4055,8.4012 1.8666,0.4026 3.7308,0.8648 5.636,0.9942 1.9051,0.1293 3.8814,-0.094 5.5657,-0.9942 1.7057,-0.9112 3.0207,-2.4884 3.7249,-4.2895 0.7041,-1.801 0.8134,-3.8108 0.4298,-5.7062 -0.3835,-1.8953 -1.2468,-3.6776 -2.3967,-5.2323 -1.15,-1.5547 -2.582,-2.8877 -4.1424,-4.03 -3.1207,-2.2844 -6.7219,-3.801 -10.2322,-5.4245 -3.5103,-1.6235 -7.0239,-3.4158 -9.7868,-6.1221 -4.0222,-3.9398 -6.1332,-9.6668 -5.9569,-15.2944 0.1764,-5.6275 2.5598,-11.1019 6.3155,-15.2966 3.7557,-4.1946 8.8268,-7.1293 14.2535,-8.6299 5.4266,-1.5005 11.1948,-1.6006 16.7412,-0.6322 11.0929,1.9368 21.057,7.9977 29.8575,15.023 8.8005,7.0252 16.72,15.1083 25.6023,22.0297 24.1645,18.8297 54.1645,28.1693 81.535,41.9293 13.6853,6.88 26.9007,15.0007 37.9231,25.6368 11.0224,10.6361 19.7974,23.9535 23.3635,38.8499 4.1718,17.4268 1.0524,35.708 -2.8005,53.2081 -33.5069,152.191 -123.8031,291.1863 -249.2376,383.6579"
       id="path5249"
       inkscape:path-effect="#path-effect5251"
       inkscape:original-d="m 2441.9688,2158.5292 c 38.9706,10.1079 62.3848,-395.5681 106.4161,-400.4604 102.1224,-11.347 250.018,-65.9705 299.6452,-165.225 25.3811,-50.7621 50.6507,-140.2642 78.4119,-168.0254 7.6432,-7.6432 25.3385,-14.1369 33.605,-22.4034 5.1133,-5.1133 42.3725,0 50.4077,0 19.1511,0 41.8299,8.225 53.208,19.603 7.4024,7.4024 195.7431,42.0064 218.433,42.0064 36.2086,0 80.1808,5.8586 114.8173,-2.8005 70.2844,-17.5711 345.1327,-70.7171 414.4626,-47.6072 43.0036,14.3346 99.9832,14.9863 142.8216,36.4055 86.3722,43.1862 217.3938,59.0605 313.6473,72.811 78.7019,11.2432 163.8031,-10.7277 232.4352,-33.605 14.2125,-4.7375 30.4923,-0.8294 44.8067,-5.6009 23.7778,-7.9259 215.1368,45.383 246.4372,53.208 55.1947,13.7987 223.6726,-15.2216 271.6411,-39.2059 17.3174,-8.6587 57.2625,19.3453 75.6114,22.4034 41.877,6.9795 88.0423,6.6083 128.8194,16.8025 22.1103,5.5276 103.6882,0.072 117.6178,14.0022 2.5436,2.5436 -25.7781,62.7578 -30.8047,72.811 -14.5612,29.1225 29.2908,57.2949 42.0064,70.0105 10.3885,10.3885 236.4696,-37.7503 257.6389,-44.8067 41.444,-13.8147 99.9444,20.0383 140.0211,0 4.2869,-2.1435 14.5298,-8.1375 19.603,-5.6009 10.9124,5.4562 22.2003,11.1002 33.6051,16.8026 10.3354,5.1677 24.0371,8.4012 36.4055,8.4012 3.7339,0 11.2017,-3.7339 11.2017,0 0,12.6967 -22.4034,-18.108 -22.4034,-30.8046 0,-23.6437 71.7929,-6.5555 86.8131,-2.8004 75.0909,18.7727 142.8216,12.5699 142.8216,106.416 0,15.5457 3.718,40.1711 -2.8005,53.2081 -54.0573,108.1147 -119.5494,685.4764 -249.2376,383.6579"
       sodipodi:nodetypes="cssssssssssssssssssssssssssssssc"
       inkscape:export-filename="C:\Users\Chad\Projects\LD19\Images\hills2.png"
       inkscape:export-xdpi="26.066919"
       inkscape:export-ydpi="26.066919" />
    <path
       style="fill:#447821;fill-opacity:1;stroke:#112b00;stroke-width:1;stroke-linecap:butt;stroke-linejoin:round;stroke-miterlimit:4;stroke-opacity:1;stroke-dasharray:none"
       d="m 6861.0362,2430.1702 c 98.2216,-172.6868 212.7817,-336.0757 341.6516,-487.2735 94.7842,-111.2064 198.926,-217.1205 324.849,-291.244 18.0095,-10.6012 36.4839,-20.5533 56.0085,-28.0042 41.9969,-16.0267 87.8247,-20.0346 132.7038,-17.4922 44.879,2.5423 89.1294,11.4347 133.1535,20.5164 44.024,9.0817 88.1565,18.3991 132.9778,21.8115 44.8212,3.4124 90.6583,0.7517 133.2452,-13.634 53.632,-18.1167 99.2467,-53.6345 146.375,-84.9957 47.1284,-31.3612 99.467,-59.8333 156.0707,-60.6263 40.1739,-0.5628 79.0325,12.8992 117.255,25.2803 38.2226,12.3811 78.0493,23.97 117.9806,19.5264 38.7891,-4.3165 74.1034,-23.3371 110.2486,-38.0594 18.0726,-7.3612 36.6855,-13.7364 55.9833,-16.635 19.2977,-2.8987 39.3986,-2.2037 57.8019,4.2868 23.0476,8.1284 42.2899,24.962 56.7732,44.647 14.4832,19.685 24.5945,42.2108 33.6236,64.9207 9.0291,22.7099 17.113,45.8533 28.0512,67.7079 10.9381,21.8545 24.9674,42.6003 43.9765,57.9599 30.0086,24.2472 69.7925,33.0166 108.3308,34.8196 38.5382,1.8029 77.1476,-2.6006 115.7031,-1.2145 48.6548,1.7492 97.4547,12.6907 145.6219,5.6009 35.9103,-5.2857 69.7431,-20.4441 100.8153,-39.206 36.8301,-22.2386 70.2963,-49.5945 106.195,-73.3073 35.8988,-23.7129 75.2118,-44.0841 117.8388,-49.9113 60.4525,-8.2639 121.124,13.4919 175.1011,41.9397 53.9771,28.4478 104.3938,63.9837 160.9498,86.8798 91.985,37.2392 197.577,38.3804 291.244,5.6008 29.715,-10.3989 58.192,-24.0282 87.587,-35.2977 29.396,-11.2694 60.162,-20.2428 91.64,-20.7107 40.198,-0.5976 79.134,12.6157 118.647,20.0257 19.757,3.7051 39.934,5.9726 59.966,4.3059 20.032,-1.6666 39.999,-7.4295 56.622,-18.7308 15.901,-10.8102 28.093,-26.1435 39.796,-41.3992 11.704,-15.2558 23.379,-30.8854 38.616,-42.6135 14.241,-10.9614 31.205,-18.1311 48.773,-21.914 17.569,-3.7829 35.746,-4.2523 53.642,-2.6187 35.793,3.2673 70.225,14.777 104.817,24.5327 54.499,15.3698 110.29,26.5784 163.36,46.3261 53.07,19.7477 104.254,49.0499 139.085,93.6951 28.716,36.808 44.877,82.4634 50.408,128.8194 4.43,37.1295 2.312,74.6957 0,112.0169 -9.732,157.078 -22.805,313.9489 -39.206,470.4711"
       id="path5253"
       inkscape:path-effect="#path-effect5255"
       inkscape:original-d="m 6861.0362,2430.1702 c 136.6668,-11.4636 203.9359,-467.5999 341.6516,-487.2735 82.6665,-11.8095 286.2341,-252.6291 324.849,-291.244 15.5568,-15.5568 41.3066,-13.3024 56.0085,-28.0042 50.6484,-50.6484 416.0043,69.2397 532.0803,11.2017 116.7479,-58.374 148.0174,-145.622 302.4457,-145.622 31.5241,0 223.2019,56.8404 235.2356,44.8067 32.0463,-32.0464 161.6243,-81.6123 224.0338,-50.4076 60.9762,30.4881 105.7854,178.5964 162.4245,235.2355 33.4965,33.4965 206.1442,15.7155 224.0339,33.6051 9.9494,9.9494 125.4573,15.6832 145.6219,5.6009 37.7539,-18.877 77.3245,-15.7152 100.8153,-39.206 49.6447,-49.6447 99.3071,-164.7941 224.0338,-123.2186 119.9163,39.9721 263.2284,55.9971 336.0509,128.8195 0.222,0.2221 267.997,17.2242 291.244,5.6008 45.903,-22.9514 119.357,-44.0344 179.227,-56.0084 68.454,-13.6909 173.168,36.6344 235.235,5.6008 49.603,-24.801 37.761,-43.3616 78.412,-84.0127 42.307,-42.307 152.007,-18.408 207.232,0 96.743,32.2478 239.345,76.9211 302.445,140.0212 29.071,29.0705 22.416,100.8279 50.408,128.8194 8.354,8.3541 13.706,98.3104 0,112.0169 -20.641,20.6409 -25.837,443.7333 -39.206,470.4711"
       sodipodi:nodetypes="cssssssssssssssscsccscc"
       inkscape:export-filename="C:\Users\Chad\Projects\LD19\Images\hills3.png"
       inkscape:export-xdpi="26.049999"
       inkscape:export-ydpi="26.049999" />
  </g>
</svg>
